<svg width="50" height="50" viewBox="0 0 23 18" fill="none" xmlns="http://www.w3.org/2000/svg">
<path d="M21.4134 14.1642C21.2791 16.0457 20.0179 17.1625 18.168 16.9678C17.2903 16.8756 16.4082 16.6751 15.5674 16.4019C12.8704 15.5268 10.2001 15.5182 7.50208 16.4025C6.63068 16.6883 5.71338 16.883 4.80232 16.9787C3.37906 17.1287 2.41927 16.4815 1.89802 15.2272C0.0934533 10.8818 3.5955 2.17381 9.23979 1.2139C14.5373 0.312972 17.8983 2.27404 19.959 6.79413C21.3624 9.67331 21.4559 13.5674 21.4134 14.1642Z" stroke="#73BC9E" stroke-width="1.5" stroke-miterlimit="10"/>
<path d="M6.8694 8.54605C7.11333 7.89518 7.4675 7.38622 7.81896 7.08276C8.18756 6.76448 8.44873 6.74865 8.57786 6.80054C8.70698 6.85242 8.88947 7.04653 8.95424 7.53895C9.016 8.00845 8.94588 8.63156 8.70194 9.28243C8.45801 9.93329 8.10384 10.4423 7.75239 10.7457C7.38378 11.064 7.12261 11.0798 6.99349 11.0279C6.86436 10.9761 6.68187 10.782 6.6171 10.2895C6.55535 9.82003 6.62546 9.19692 6.8694 8.54605Z" fill="#73BC9E" stroke="#73BC9E"/>
<path d="M15.525 8.54793C15.7689 9.19881 15.839 9.82193 15.7773 10.2914C15.7125 10.7839 15.53 10.978 15.4009 11.0299C15.2717 11.0818 15.0106 11.0659 14.642 10.7476C14.2905 10.4442 13.9363 9.9352 13.6924 9.28432C13.4484 8.63344 13.3783 8.01032 13.4401 7.54081C13.5049 7.04838 13.6873 6.85427 13.8165 6.80238C13.9456 6.75049 14.2068 6.76633 14.5754 7.08461C14.9268 7.38807 15.281 7.89705 15.525 8.54793Z" fill="#73BC9E" stroke="#73BC9E"/>
</svg>
